<?xml version="1.0" encoding="UTF-8" standalone="no"?>
<!DOCTYPE svg PUBLIC "-//W3C//DTD SVG 1.1//EN" "http://www.w3.org/Graphics/SVG/1.1/DTD/svg11.dtd">
<svg width="100%" height="100%" viewBox="0 0 1340 948" version="1.1" xmlns="http://www.w3.org/2000/svg" xmlns:xlink="http://www.w3.org/1999/xlink" xml:space="preserve" xmlns:serif="http://www.serif.com/" style="fill-rule:evenodd;clip-rule:evenodd;stroke-linejoin:round;stroke-miterlimit:2;">
    <g transform="matrix(1,0,0,1,-290.106,-66.2601)">
        <g id="Walls" transform="matrix(1.14223,0,0,1.14223,-136.544,-76.8059)">
            <g id="Right" transform="matrix(-1.4103,0,0,1.3365,2461.64,-99.6974)">
                <path d="M648.913,788.961L648.913,168.312L916.519,356.841L916.519,659.292L648.913,788.961Z" style="fill:rgb(222,159,39);"/>
            </g>
            <g id="back" transform="matrix(0.673716,0,0,0.651295,551.597,267.601)">
                <rect x="295.87" y="168.312" width="620.649" height="620.649" style="fill:rgb(170,153,50);"/>
            </g>
            <g id="bottom" transform="matrix(1.69216,0,0,1.54833,-708.034,-303.386)">
                <path d="M1332.32,812.576L639.156,812.576L862.188,700.648L1109.29,700.648L1332.32,812.576Z" style="fill:rgb(150,110,19);"/>
            </g>
            <g id="top" transform="matrix(1.69216,1.6686e-31,-1.52677e-31,-1.54833,-708.034,1383.39)">
                <path d="M1332.32,812.576L639.156,812.576L862.188,649.839L1109.29,649.839L1332.32,812.576Z" style="fill:rgb(226,193,33);"/>
            </g>
            <g id="left" transform="matrix(1.4103,0,0,1.3365,-541.642,-99.6974)">
                <path d="M648.913,788.961L648.913,168.312L916.519,356.841L916.519,659.292L648.913,788.961Z" style="fill:rgb(179,178,53);"/>
            </g>
        </g>
        <g id="Door-Right" transform="matrix(1.25095,0,0,0.962997,976.766,128.393)">
            <g id="Right-Wall">
                <path id="Door-Right1" serif:id="Door-Right" d="M349.803,474.078L349.803,816.588L262.208,763.928L262.208,474.078L349.803,474.078Z" style="fill:rgb(117,83,0);"/>
                <clipPath id="_clip1">
                    <path id="Door-Right2" serif:id="Door-Right" d="M349.803,474.078L349.803,816.588L262.208,763.928L262.208,474.078L349.803,474.078Z"/>
                </clipPath>
                <g clip-path="url(#_clip1)">
                    <g transform="matrix(1,0,0,1.29902,84.3937,-14.6536)">
                        <ellipse cx="248.15" cy="516.05" rx="7.318" ry="7.983" style="fill:rgb(226,191,34);"/>
                    </g>
                </g>
            </g>
        </g>
        <g id="Door-Center" transform="matrix(0.822358,0,0,0.806115,689.583,202.767)">
            <g id="Center-Wall">
                <rect id="Door-Center1" serif:id="Door-Center" x="262.208" y="474.078" width="133.247" height="286.386" style="fill:rgb(117,83,0);"/>
                <g id="Door-Center2" serif:id="Door-Center">
                    <g transform="matrix(1.52117,0,0,1.55182,-10.1907,-179.97)">
                        <ellipse cx="248.15" cy="516.05" rx="7.318" ry="7.983" style="fill:rgb(226,191,34);"/>
                    </g>
                </g>
            </g>
        </g>
        <g id="Door-Left" transform="matrix(-1.25095,0,0,0.962997,943.234,128.393)">
            <g id="Left-Wall">
                <path id="Door-Left1" serif:id="Door-Left" d="M349.803,474.078L349.803,816.588L262.208,764.361L262.208,474.078L349.803,474.078Z" style="fill:rgb(117,83,0);"/>
                <clipPath id="_clip2">
                    <path id="Door-Left2" serif:id="Door-Left" d="M349.803,474.078L349.803,816.588L262.208,764.361L262.208,474.078L349.803,474.078Z"/>
                </clipPath>
                <g clip-path="url(#_clip2)">
                    <g transform="matrix(-1,0,0,1.29902,528.801,-35.3946)">
                        <ellipse cx="248.15" cy="516.05" rx="7.318" ry="7.983" style="fill:rgb(226,191,34);"/>
                    </g>
                </g>
            </g>
        </g>
        <g id="Key" transform="matrix(1.00186,0,0,1.00186,4.3012,-12.245)">
            <g id="Keys-1" transform="matrix(0.488411,0,0,0.488411,1028.19,425.582)">
                <path d="M115.094,539.014C91.96,534.375 74.511,513.929 74.511,489.439C74.511,461.533 97.167,438.877 125.073,438.877C152.978,438.877 175.634,461.533 175.634,489.439C175.634,513.929 158.185,534.375 135.052,539.014L135.052,666.679C135.052,672.188 130.586,676.654 125.077,676.654L125.069,676.654C122.423,676.654 119.886,675.603 118.015,673.732C116.611,672.328 115.668,670.547 115.286,668.627L107.898,668.627C99.107,668.627 91.981,661.501 91.981,652.71L91.981,642.534C91.981,633.797 99.063,626.715 107.8,626.715L115.094,626.715L115.094,539.014ZM125.073,459.889C108.764,459.889 95.523,473.13 95.523,489.439C95.523,505.748 108.764,518.989 125.073,518.989C141.382,518.989 154.623,505.748 154.623,489.439C154.623,473.13 141.382,459.889 125.073,459.889Z" style="fill:rgb(9,6,0);"/>
            </g>
            <g id="Keys-0" transform="matrix(0.488411,0,0,0.488411,763.099,423.397)">
                <path d="M115.094,539.014C91.96,534.375 74.511,513.929 74.511,489.439C74.511,461.533 97.167,438.877 125.073,438.877C152.978,438.877 175.634,461.533 175.634,489.439C175.634,513.929 158.185,534.375 135.052,539.014L135.052,666.679C135.052,672.188 130.586,676.654 125.077,676.654L125.069,676.654C122.423,676.654 119.886,675.603 118.015,673.732C116.611,672.328 115.668,670.547 115.286,668.627L107.898,668.627C99.107,668.627 91.981,661.501 91.981,652.71L91.981,642.534C91.981,633.797 99.063,626.715 107.8,626.715L115.094,626.715L115.094,539.014ZM125.073,459.889C108.764,459.889 95.523,473.13 95.523,489.439C95.523,505.748 108.764,518.989 125.073,518.989C141.382,518.989 154.623,505.748 154.623,489.439C154.623,473.13 141.382,459.889 125.073,459.889Z" style="fill:rgb(9,6,0);"/>
            </g>
        </g>
        <g id="Exit" transform="matrix(0.596058,0,0,0.596058,886.894,235.267)">
            <path d="M197.688,461.455L197.688,561.039L47.61,561.039L47.61,461.455L197.688,461.455ZM185.766,473.377L59.532,473.377L59.532,549.117L185.766,549.117L185.766,473.377ZM183.72,489.546L183.72,493.828L173.251,493.828L173.251,532.203L160.126,532.203L160.126,493.828L149.595,493.828L149.595,489.546L183.72,489.546ZM128.251,489.546L117.064,507.796L130.657,532.203L116.907,532.203L108.72,517.203L99.626,532.203L94.064,532.203L106.095,512.703L93.22,489.546L106.939,489.546L114.564,503.453L122.814,489.546L128.251,489.546ZM90.845,489.546L90.845,493.828L75.564,493.828L75.564,506.734L88.407,506.734L88.407,511.015L75.564,511.015L75.564,527.921L93.439,527.921L93.439,532.203L63.189,532.203L63.189,489.546L90.845,489.546ZM146.376,489.546L146.376,532.203L134.001,532.203L134.001,489.546L146.376,489.546Z" style="fill:rgb(9,6,0);"/>
        </g>
    </g>
</svg>
